#!OML:ASF X:\für Bonn\!DataBase\2005_08_10_Bjorn_Final\c3d\bjorn.ASF
:FULLY-SPECIFIED
:DEGREES
108
root 16.1831 18.877 0.283241 169.381 -107.872 -139.099
lowerback 39.9727 -0.630817 13.5266
upperback 23.4885 0.360869 3.79193
thorax 7.53303 0.543505 -2.97716
lowerneck 9.11905 -9.05022 10.3394
upperneck -15.8189 -10.5541 1.49302
head -6.83498 -5.90682 -0.211742
rclavicle -6.67916e-014 -2.38542e-014
rhumerus 48.3356 -3.30067 -43.0331
rradius 25.1838
rwrist -15.7392
rhand -15.4483 9.68159
rfingers 7.12502
rthumb 10.7324 -20.0243
lclavicle -6.67916e-014 -2.38542e-014
lhumerus -16.597 -36.6034 90.3597
lradius 45.7281
lwrist -6.92254
lhand -15.1912 -7.88639
lfingers 7.12502
lthumb 10.9804 21.8065
rfemur -58.2801 -13.872 8.08326
rtibia 44.5928
rfoot -10.3813 2.24574
rtoes -7.01331
lfemur -55.856 2.81557 -30.5392
ltibia 40.1804
lfoot -8.08984 1.89286
ltoes -15.2169
109
root 16.1682 18.8516 0.296874 169.214 -107.927 -138.471
lowerback 40.516 -0.631144 13.4284
upperback 23.4582 0.409517 3.79274
thorax 7.33899 0.547074 -2.92693
lowerneck 9.00802 -9.03804 10.4113
upperneck -16.13 -10.5538 1.46111
head -6.92349 -5.9243 -0.227878
rclavicle -2.22639e-014 7.95139e-015
rhumerus 49.0049 -3.80961 -42.533
rradius 24.9552
rwrist -15.5026
rhand -15.4721 9.59992
rfingers 7.12502
rthumb 10.7094 -20.1071
lclavicle -2.22639e-014 7.95139e-015
lhumerus -16.384 -36.4643 90.2974
lradius 45.8437
lwrist -7.05245
lhand -15.7522 -8.12933
lfingers 7.12502
lthumb 10.4392 21.5915
rfemur -58.9729 -13.9787 7.91213
rtibia 45.0684
rfoot -10.5818 2.24913
rtoes -7.30871
lfemur -56.4974 3.02049 -30.9786
ltibia 39.8452
lfoot -7.20185 1.84301
ltoes -12.0086
110
root 16.1528 18.8242 0.311472 169.025 -107.964 -137.862
lowerback 41.1038 -0.647207 13.3486
upperback 23.4243 0.449428 3.77482
thorax 7.13286 0.54911 -2.90266
lowerneck 8.91051 -9.00921 10.4833
upperneck -16.458 -10.526 1.44542
head -7.01802 -5.93065 -0.24065
rclavicle 6.36111e-015 7.95139e-016
rhumerus 49.6532 -4.2916 -42.0888
rradius 24.7981
rwrist -15.5583
rhand -15.5339 9.53323
rfingers 7.12502
rthumb 10.6497 -20.1769
lclavicle 6.36111e-015 7.95139e-016
lhumerus -16.1542 -36.3377 90.1914
lradius 45.9709
lwrist -7.20498
lhand -16.3611 -8.39934
lfingers 7.12502
lthumb 9.85174 21.3502
rfemur -59.6362 -14.0764 7.7491
rtibia 45.5582
rfoot -10.7667 2.28489
rtoes -7.48165
lfemur -57.0783 3.18268 -31.3654
ltibia 39.6132
lfoot -6.35591 1.82301
ltoes -9.05027
111
root 16.1379 18.7959 0.32757 168.742 -107.98 -137.196
lowerback 41.7498 -0.65674 13.2552
upperback 23.3781 0.500796 3.75479
thorax 6.90033 0.553459 -2.87626
lowerneck 8.84305 -8.99206 10.5722
upperneck -16.8075 -10.5134 1.40108
head -7.12825 -5.94379 -0.261238
rclavicle 1.59028e-014 -1.51076e-014
rhumerus 50.2823 -4.71525 -41.6249
rradius 24.618
rwrist -15.9574
rhand -15.6645 9.60976
rfingers 7.12502
rthumb 10.5238 -20.1068
lclavicle 1.59028e-014 -1.51076e-014
lhumerus -15.8996 -36.2682 90.0826
lradius 46.0705
lwrist -7.40337
lhand -17.0518 -8.66984
lfingers 7.12502
lthumb 9.18537 21.1101
rfemur -60.2635 -14.1448 7.56365
rtibia 46.0574
rfoot -10.9539 2.29012
rtoes -7.84499
lfemur -57.6081 3.34235 -31.765
ltibia 39.4938
lfoot -5.71902 1.72608
ltoes -7.01284
112
root 16.1235 18.767 0.344473 168.494 -107.978 -136.6
lowerback 42.4272 -0.67902 13.1862
upperback 23.323 0.548714 3.72019
thorax 6.65607 0.559168 -2.87601
lowerneck 8.75799 -8.97093 10.7061
upperneck -17.1304 -10.4944 1.33592
head -7.23058 -5.95402 -0.297374
rclavicle 1.04958e-013 2.38542e-015
rhumerus 50.9551 -5.20297 -41.3517
rradius 24.388
rwrist -16.3235
rhand -15.7122 9.72202
rfingers 7.12502
rthumb 10.4778 -19.9969
lclavicle 1.04958e-013 2.38542e-015
lhumerus -15.6959 -36.2519 89.9492
lradius 46.2605
lwrist -7.54755
lhand -17.7553 -8.91877
lfingers 7.12502
lthumb 8.50644 20.8899
rfemur -60.8464 -14.1303 7.34179
rtibia 46.5613
rfoot -11.1935 2.24633
rtoes -8.01958
lfemur -58.0946 3.49721 -32.1447
ltibia 39.4814
lfoot -5.2881 1.58345
ltoes -5.55284
113
root 16.1093 18.7387 0.361664 168.406 -107.938 -136.242
lowerback 43.2945 -0.730737 13.2004
upperback 23.1326 0.633561 3.67956
thorax 6.40309 0.576625 -2.88119
lowerneck 8.69566 -8.95579 10.8093
upperneck -17.4629 -10.4863 1.27009
head -7.33886 -5.96804 -0.326834
rclavicle 7.63333e-014 -1.43125e-014
rhumerus 51.5821 -5.69413 -41.0928
rradius 24.1893
rwrist -16.6324
rhand -15.76 9.76878
rfingers 7.12502
rthumb 10.4317 -19.9524
lclavicle 7.63333e-014 -1.43125e-014
lhumerus -15.4673 -36.3104 89.8346
lradius 46.457
lwrist -7.5725
lhand -18.4801 -9.18109
lfingers 7.12502
lthumb 7.807 20.6548
rfemur -61.3478 -14.043 7.17731
rtibia 47.0626
rfoot -11.4478 2.1494
rtoes -8.38143
lfemur -58.4954 3.61296 -32.3692
ltibia 39.5833
lfoot -4.98495 1.42671
ltoes -4.07466
114
root 16.0957 18.7107 0.380241 168.264 -107.873 -135.83
lowerback 44.0374 -0.762762 13.1956
upperback 23.0607 0.698304 3.63155
thorax 6.136 0.596069 -2.93294
lowerneck 8.63703 -8.94332 10.9049
upperneck -17.7551 -10.4716 1.25444
head -7.43147 -5.98068 -0.341021
rclavicle -6.99722e-014 -3.97569e-015
rhumerus 52.1809 -6.14516 -40.8795
rradius 23.9642
rwrist -16.7799
rhand -15.8931 9.8683
rfingers 7.12502
rthumb 10.3033 -19.8593
lclavicle -6.99722e-014 -3.97569e-015
lhumerus -15.2813 -36.4232 89.6663
lradius 46.7144
lwrist -7.53615
lhand -19.1869 -9.58102
lfingers 7.12502
lthumb 7.12473 20.2791
rfemur -61.853 -13.9472 7.00077
rtibia 47.5624
rfoot -11.6743 2.0993
rtoes -8.68583
lfemur -58.8618 3.6876 -32.5606
ltibia 39.7829
lfoot -4.88162 1.26895
ltoes -2.7463
115
root 16.0817 18.681 0.400911 168.046 -107.777 -135.355
lowerback 44.8148 -0.798694 13.2
upperback 22.9726 0.768427 3.55465
thorax 5.84881 0.620842 -3.02171
lowerneck 8.51037 -8.92692 11.0498
upperneck -17.977 -10.4601 1.20079
head -7.4944 -5.99274 -0.379633
rclavicle -4.77083e-014 -1.59028e-015
rhumerus 52.7406 -6.55384 -40.6466
rradius 23.745
rwrist -16.9168
rhand -16.1197 9.9133
rfingers 7.12502
rthumb 10.0847 -19.825
lclavicle -4.77083e-014 -1.59028e-015
lhumerus -15.1382 -36.6702 89.4441
lradius 47.0972
lwrist -7.33244
lhand -19.7539 -9.91801
lfingers 7.12502
lthumb 6.57744 19.9598
rfemur -62.347 -13.8298 6.81204
rtibia 48.0576
rfoot -11.932 2.03226
rtoes -8.99929
lfemur -59.1983 3.75578 -32.7347
ltibia 40.0666
lfoot -4.92204 1.07813
ltoes -1.49234
116
root 16.0675 18.6506 0.421586 167.744 -107.675 -134.768
lowerback 46.5516 -1.03921 13.3104
upperback 22.0637 0.931526 3.15231
thorax 5.39102 0.650287 -3.13493
lowerneck 8.40329 -8.90588 11.2722
upperneck -18.2209 -10.4276 1.14233
head -7.57246 -5.99989 -0.431785
rclavicle 9.54166e-015 -2.8625e-014
rhumerus 53.3093 -7.00632 -40.583
rradius 23.4914
rwrist -16.8739
rhand -16.3084 9.9632
rfingers 7.12502
rthumb 9.90268 -19.7839
lclavicle 9.54166e-015 -2.8625e-014
lhumerus -15.0131 -37.0244 89.1134
lradius 47.5428
lwrist -7.00104
lhand -20.347 -10.2798
lfingers 7.12502
lthumb 6.00478 19.6151
rfemur -62.873 -13.7042 6.59208
rtibia 48.5463
rfoot -12.1581 1.97462
rtoes -9.41026
lfemur -59.5565 3.77012 -32.9011
ltibia 40.4059
lfoot -5.06312 0.906033
ltoes -0.978935
117
root 16.054 18.6206 0.444053 167.365 -107.557 -134.133
lowerback 47.3823 -1.08881 13.2866
upperback 21.9251 0.988508 2.99684
thorax 5.10966 0.672495 -3.27615
lowerneck 8.22329 -8.87327 11.4925
upperneck -18.3829 -10.3879 1.09326
head -7.60962 -6.00184 -0.487504
rclavicle -7.31528e-014 -3.65764e-014
rhumerus 53.8776 -7.45379 -40.515
rradius 23.2858
rwrist -16.8803
rhand -16.5059 9.97432
rfingers 7.12502
rthumb 9.71213 -19.7818
lclavicle -7.31528e-014 -3.65764e-014
lhumerus -14.8887 -37.4083 88.739
lradius 48.0533
lwrist -6.66184
lhand -20.9631 -10.5135
lfingers 7.12502
lthumb 5.41001 19.3974
rfemur -63.3552 -13.5534 6.34081
rtibia 49.0247
rfoot -12.3894 1.9124
rtoes -9.5927
lfemur -59.8878 3.78735 -33.0796
ltibia 40.7782
lfoot -5.30845 0.738644
ltoes -1.57871
118
root 16.0395 18.5915 0.466386 167.045 -107.442 -133.542
lowerback 48.1749 -1.127 13.2219
upperback 21.7927 1.0351 2.87835
thorax 4.84322 0.682373 -3.35852
lowerneck 8.03676 -8.82088 11.6124
upperneck -18.5344 -10.3354 1.0645
head -7.63379 -5.99326 -0.524291
rclavicle -3.18055e-014 -6.36111e-015
rhumerus 54.4881 -7.84105 -40.3992
rradius 23.1182
rwrist -16.9261
rhand -16.7306 9.96053
rfingers 7.12502
rthumb 9.49532 -19.8055
lclavicle -3.18055e-014 -6.36111e-015
lhumerus -14.7246 -37.7202 88.3781
lradius 48.5477
lwrist -6.34961
lhand -21.7053 -10.6608
lfingers 7.12502
lthumb 4.69333 19.2673
rfemur -63.841 -13.3941 6.10172
rtibia 49.4869
rfoot -12.6206 1.83052
rtoes -9.96907
lfemur -60.2432 3.75941 -33.2121
ltibia 41.1542
lfoot -5.6609 0.608296
ltoes -2.76525
119
root 16.0246 18.5634 0.488441 166.762 -107.335 -133.021
lowerback 48.9852 -1.18317 13.1744
upperback 21.6669 1.0656 2.75206
thorax 4.59028 0.687494 -3.45153
lowerneck 7.78741 -8.74119 11.7373
upperneck -18.6417 -10.2537 1.03701
head -7.63074 -5.9701 -0.568952
rclavicle 2.54444e-014 1.11319e-014
rhumerus 55.1167 -8.24817 -40.3439
rradius 22.9833
rwrist -16.9069
rhand -16.9781 9.83922
rfingers 7.12502
rthumb 9.25643 -19.9376
lclavicle 2.54444e-014 1.11319e-014
lhumerus -14.4454 -38.0789 87.9565
lradius 48.9416
lwrist -5.98509
lhand -22.604 -10.7024
lfingers 7.12502
lthumb 3.82556 19.243
rfemur -64.2799 -13.2323 5.87331
rtibia 49.9375
rfoot -12.8573 1.73702
rtoes -10.3785
lfemur -60.6013 3.78192 -33.3834
ltibia 41.5253
lfoot -6.00023 0.444842
ltoes -5.17323
